<mxfile host="app.diagrams.net" modified="2022-09-08T13:32:20.527Z" agent="5.0 (Macintosh; Intel Mac OS X 10_15_7) AppleWebKit/537.36 (KHTML, like Gecko) Chrome/105.0.0.0 Safari/537.36" etag="mA9moaSEvBeohKM-xFNJ" version="20.2.3" type="github">
  <diagram id="AwN7vVhOrOwk2pl2pIlE" name="Page-1">
    <mxGraphModel dx="1377" dy="755" grid="1" gridSize="10" guides="1" tooltips="1" connect="1" arrows="1" fold="1" page="1" pageScale="1" pageWidth="827" pageHeight="1169" math="0" shadow="0">
      <root>
        <mxCell id="0" />
        <mxCell id="1" parent="0" />
        <mxCell id="gyCaFqsIdJrXnqOvhJbO-14" value="" style="edgeStyle=orthogonalEdgeStyle;rounded=0;orthogonalLoop=1;jettySize=auto;html=1;" parent="1" source="gyCaFqsIdJrXnqOvhJbO-1" target="gyCaFqsIdJrXnqOvhJbO-3" edge="1">
          <mxGeometry relative="1" as="geometry" />
        </mxCell>
        <mxCell id="gyCaFqsIdJrXnqOvhJbO-1" value="Start" style="strokeWidth=2;html=1;shape=mxgraph.flowchart.start_2;whiteSpace=wrap;fillColor=#d5e8d4;strokeColor=#82b366;" parent="1" vertex="1">
          <mxGeometry x="364" y="30" width="100" height="100" as="geometry" />
        </mxCell>
        <mxCell id="gyCaFqsIdJrXnqOvhJbO-15" value="" style="edgeStyle=orthogonalEdgeStyle;rounded=0;orthogonalLoop=1;jettySize=auto;html=1;" parent="1" source="gyCaFqsIdJrXnqOvhJbO-3" target="gyCaFqsIdJrXnqOvhJbO-5" edge="1">
          <mxGeometry relative="1" as="geometry" />
        </mxCell>
        <mxCell id="gyCaFqsIdJrXnqOvhJbO-3" value="Cluster Initialization" style="rounded=0;whiteSpace=wrap;html=1;fillColor=#d5e8d4;strokeColor=#82b366;" parent="1" vertex="1">
          <mxGeometry x="354" y="160" width="120" height="60" as="geometry" />
        </mxCell>
        <mxCell id="gyCaFqsIdJrXnqOvhJbO-16" value="" style="edgeStyle=orthogonalEdgeStyle;rounded=0;orthogonalLoop=1;jettySize=auto;html=1;" parent="1" source="gyCaFqsIdJrXnqOvhJbO-5" target="gyCaFqsIdJrXnqOvhJbO-7" edge="1">
          <mxGeometry relative="1" as="geometry" />
        </mxCell>
        <mxCell id="gyCaFqsIdJrXnqOvhJbO-5" value="Node Provisioning&amp;nbsp;" style="rounded=0;whiteSpace=wrap;html=1;fillColor=#d5e8d4;strokeColor=#82b366;" parent="1" vertex="1">
          <mxGeometry x="354" y="240" width="120" height="60" as="geometry" />
        </mxCell>
        <mxCell id="gyCaFqsIdJrXnqOvhJbO-18" value="No" style="edgeStyle=orthogonalEdgeStyle;rounded=0;orthogonalLoop=1;jettySize=auto;html=1;entryX=0;entryY=0.5;entryDx=0;entryDy=0;" parent="1" source="gyCaFqsIdJrXnqOvhJbO-7" edge="1" target="gyCaFqsIdJrXnqOvhJbO-137">
          <mxGeometry relative="1" as="geometry">
            <mxPoint x="610" y="385" as="targetPoint" />
          </mxGeometry>
        </mxCell>
        <mxCell id="gyCaFqsIdJrXnqOvhJbO-21" value="Yes" style="edgeStyle=orthogonalEdgeStyle;rounded=0;orthogonalLoop=1;jettySize=auto;html=1;" parent="1" source="gyCaFqsIdJrXnqOvhJbO-7" target="gyCaFqsIdJrXnqOvhJbO-19" edge="1">
          <mxGeometry relative="1" as="geometry" />
        </mxCell>
        <mxCell id="gyCaFqsIdJrXnqOvhJbO-7" value="Provisioning&lt;br&gt;Successful&lt;br&gt;?" style="rhombus;whiteSpace=wrap;html=1;spacingTop=10;fillColor=#dae8fc;strokeColor=#6c8ebf;" parent="1" vertex="1">
          <mxGeometry x="349" y="330" width="129" height="110" as="geometry" />
        </mxCell>
        <mxCell id="gyCaFqsIdJrXnqOvhJbO-27" value="No" style="edgeStyle=orthogonalEdgeStyle;rounded=0;orthogonalLoop=1;jettySize=auto;html=1;entryX=0.5;entryY=0;entryDx=0;entryDy=0;" parent="1" source="gyCaFqsIdJrXnqOvhJbO-19" target="gyCaFqsIdJrXnqOvhJbO-104" edge="1">
          <mxGeometry x="-0.3859" relative="1" as="geometry">
            <mxPoint x="140" y="670" as="targetPoint" />
            <mxPoint as="offset" />
          </mxGeometry>
        </mxCell>
        <mxCell id="gyCaFqsIdJrXnqOvhJbO-29" value="Yes" style="edgeStyle=orthogonalEdgeStyle;rounded=0;orthogonalLoop=1;jettySize=auto;html=1;" parent="1" source="gyCaFqsIdJrXnqOvhJbO-19" target="gyCaFqsIdJrXnqOvhJbO-28" edge="1">
          <mxGeometry relative="1" as="geometry" />
        </mxCell>
        <mxCell id="gyCaFqsIdJrXnqOvhJbO-19" value="Spot Instances&lt;br&gt;?" style="strokeWidth=2;html=1;shape=mxgraph.flowchart.decision;whiteSpace=wrap;spacingTop=9;fillColor=#dae8fc;strokeColor=#6c8ebf;" parent="1" vertex="1">
          <mxGeometry x="352" y="490" width="124" height="110" as="geometry" />
        </mxCell>
        <mxCell id="gyCaFqsIdJrXnqOvhJbO-25" style="edgeStyle=orthogonalEdgeStyle;rounded=0;orthogonalLoop=1;jettySize=auto;html=1;" parent="1" source="gyCaFqsIdJrXnqOvhJbO-24" target="gyCaFqsIdJrXnqOvhJbO-3" edge="1">
          <mxGeometry relative="1" as="geometry" />
        </mxCell>
        <mxCell id="gyCaFqsIdJrXnqOvhJbO-24" value="TWS" style="verticalLabelPosition=bottom;html=1;verticalAlign=top;align=center;strokeColor=none;fillColor=#00BEF2;shape=mxgraph.azure.computer;pointerEvents=1;" parent="1" vertex="1">
          <mxGeometry x="30" y="167.5" width="50" height="45" as="geometry" />
        </mxCell>
        <mxCell id="gyCaFqsIdJrXnqOvhJbO-70" style="edgeStyle=orthogonalEdgeStyle;rounded=0;orthogonalLoop=1;jettySize=auto;html=1;entryX=0.5;entryY=0;entryDx=0;entryDy=0;" parent="1" source="gyCaFqsIdJrXnqOvhJbO-37" target="gyCaFqsIdJrXnqOvhJbO-61" edge="1">
          <mxGeometry relative="1" as="geometry" />
        </mxCell>
        <mxCell id="gyCaFqsIdJrXnqOvhJbO-131" value="No" style="edgeLabel;html=1;align=center;verticalAlign=middle;resizable=0;points=[];" parent="gyCaFqsIdJrXnqOvhJbO-70" vertex="1" connectable="0">
          <mxGeometry x="-0.7766" y="-4" relative="1" as="geometry">
            <mxPoint as="offset" />
          </mxGeometry>
        </mxCell>
        <mxCell id="gyCaFqsIdJrXnqOvhJbO-60" value="" style="edgeStyle=orthogonalEdgeStyle;rounded=0;orthogonalLoop=1;jettySize=auto;html=1;" parent="1" edge="1">
          <mxGeometry relative="1" as="geometry">
            <mxPoint x="474" y="1870" as="sourcePoint" />
            <mxPoint x="474" y="1920" as="targetPoint" />
          </mxGeometry>
        </mxCell>
        <mxCell id="gyCaFqsIdJrXnqOvhJbO-61" value="Cluster Shutdown" style="whiteSpace=wrap;html=1;strokeWidth=2;spacingBottom=0;spacingTop=0;fillColor=#f8cecc;strokeColor=#b85450;" parent="1" vertex="1">
          <mxGeometry x="414" y="1800" width="120" height="60" as="geometry" />
        </mxCell>
        <mxCell id="gyCaFqsIdJrXnqOvhJbO-62" value="Cluster Terminated" style="whiteSpace=wrap;html=1;strokeWidth=2;spacingBottom=0;spacingTop=0;fillColor=#f8cecc;strokeColor=#b85450;" parent="1" vertex="1">
          <mxGeometry x="414" y="1910" width="120" height="60" as="geometry" />
        </mxCell>
        <mxCell id="gyCaFqsIdJrXnqOvhJbO-133" style="edgeStyle=orthogonalEdgeStyle;rounded=0;orthogonalLoop=1;jettySize=auto;html=1;" parent="1" source="gyCaFqsIdJrXnqOvhJbO-63" target="gyCaFqsIdJrXnqOvhJbO-61" edge="1">
          <mxGeometry relative="1" as="geometry" />
        </mxCell>
        <mxCell id="gyCaFqsIdJrXnqOvhJbO-134" value="No" style="edgeLabel;html=1;align=center;verticalAlign=middle;resizable=0;points=[];" parent="gyCaFqsIdJrXnqOvhJbO-133" vertex="1" connectable="0">
          <mxGeometry x="-0.6499" y="1" relative="1" as="geometry">
            <mxPoint as="offset" />
          </mxGeometry>
        </mxCell>
        <mxCell id="gyCaFqsIdJrXnqOvhJbO-126" value="" style="edgeStyle=orthogonalEdgeStyle;rounded=0;orthogonalLoop=1;jettySize=auto;html=1;" parent="1" source="gyCaFqsIdJrXnqOvhJbO-104" target="gyCaFqsIdJrXnqOvhJbO-109" edge="1">
          <mxGeometry relative="1" as="geometry" />
        </mxCell>
        <mxCell id="gyCaFqsIdJrXnqOvhJbO-104" value="Bootstrap Actions" style="whiteSpace=wrap;html=1;strokeWidth=2;fillColor=#d5e8d4;strokeColor=#82b366;" parent="1" vertex="1">
          <mxGeometry x="42" y="790" width="120" height="60" as="geometry" />
        </mxCell>
        <mxCell id="gyCaFqsIdJrXnqOvhJbO-108" value="Yes" style="edgeStyle=orthogonalEdgeStyle;rounded=0;orthogonalLoop=1;jettySize=auto;html=1;" parent="1" source="gyCaFqsIdJrXnqOvhJbO-109" target="gyCaFqsIdJrXnqOvhJbO-112" edge="1">
          <mxGeometry relative="1" as="geometry" />
        </mxCell>
        <mxCell id="gyCaFqsIdJrXnqOvhJbO-128" style="edgeStyle=orthogonalEdgeStyle;rounded=0;orthogonalLoop=1;jettySize=auto;html=1;entryX=0.5;entryY=0;entryDx=0;entryDy=0;" parent="1" source="gyCaFqsIdJrXnqOvhJbO-109" target="gyCaFqsIdJrXnqOvhJbO-61" edge="1">
          <mxGeometry relative="1" as="geometry" />
        </mxCell>
        <mxCell id="gyCaFqsIdJrXnqOvhJbO-130" value="No" style="edgeLabel;html=1;align=center;verticalAlign=middle;resizable=0;points=[];" parent="gyCaFqsIdJrXnqOvhJbO-128" vertex="1" connectable="0">
          <mxGeometry x="-0.6831" y="1" relative="1" as="geometry">
            <mxPoint as="offset" />
          </mxGeometry>
        </mxCell>
        <mxCell id="gyCaFqsIdJrXnqOvhJbO-109" value="Bootstrap&lt;br&gt;Successful&lt;br&gt;?" style="strokeWidth=2;html=1;shape=mxgraph.flowchart.decision;whiteSpace=wrap;verticalAlign=middle;spacingBottom=0;spacingTop=11;fillColor=#dae8fc;strokeColor=#6c8ebf;" parent="1" vertex="1">
          <mxGeometry x="40" y="1020" width="124" height="110" as="geometry" />
        </mxCell>
        <mxCell id="gyCaFqsIdJrXnqOvhJbO-127" value="" style="edgeStyle=orthogonalEdgeStyle;rounded=0;orthogonalLoop=1;jettySize=auto;html=1;" parent="1" source="gyCaFqsIdJrXnqOvhJbO-112" target="gyCaFqsIdJrXnqOvhJbO-125" edge="1">
          <mxGeometry relative="1" as="geometry" />
        </mxCell>
        <mxCell id="gyCaFqsIdJrXnqOvhJbO-112" value="Step Actions" style="whiteSpace=wrap;html=1;strokeWidth=2;spacingBottom=0;spacingTop=0;fillColor=#d5e8d4;strokeColor=#82b366;" parent="1" vertex="1">
          <mxGeometry x="40" y="1200" width="120" height="60" as="geometry" />
        </mxCell>
        <mxCell id="gyCaFqsIdJrXnqOvhJbO-117" value="Yes" style="edgeStyle=orthogonalEdgeStyle;rounded=0;orthogonalLoop=1;jettySize=auto;html=1;" parent="1" source="gyCaFqsIdJrXnqOvhJbO-119" target="gyCaFqsIdJrXnqOvhJbO-121" edge="1">
          <mxGeometry relative="1" as="geometry" />
        </mxCell>
        <mxCell id="gyCaFqsIdJrXnqOvhJbO-118" value="" style="edgeStyle=orthogonalEdgeStyle;rounded=0;orthogonalLoop=1;jettySize=auto;html=1;" parent="1" source="gyCaFqsIdJrXnqOvhJbO-119" target="gyCaFqsIdJrXnqOvhJbO-122" edge="1">
          <mxGeometry relative="1" as="geometry" />
        </mxCell>
        <mxCell id="gyCaFqsIdJrXnqOvhJbO-119" value="Cluster Configured to auto-terminate&lt;br&gt;?" style="rhombus;whiteSpace=wrap;html=1;strokeWidth=2;spacingBottom=0;spacingTop=11;fillColor=#dae8fc;strokeColor=#6c8ebf;" parent="1" vertex="1">
          <mxGeometry x="30" y="1610" width="144" height="140" as="geometry" />
        </mxCell>
        <mxCell id="gyCaFqsIdJrXnqOvhJbO-120" value="" style="edgeStyle=orthogonalEdgeStyle;rounded=0;orthogonalLoop=1;jettySize=auto;html=1;" parent="1" source="gyCaFqsIdJrXnqOvhJbO-121" target="gyCaFqsIdJrXnqOvhJbO-123" edge="1">
          <mxGeometry relative="1" as="geometry" />
        </mxCell>
        <mxCell id="gyCaFqsIdJrXnqOvhJbO-121" value="Cluster Shutdown" style="whiteSpace=wrap;html=1;strokeWidth=2;spacingBottom=0;spacingTop=0;fillColor=#e1d5e7;strokeColor=#9673a6;" parent="1" vertex="1">
          <mxGeometry x="42" y="1800" width="120" height="60" as="geometry" />
        </mxCell>
        <mxCell id="gyCaFqsIdJrXnqOvhJbO-122" value="Cluster Wating" style="whiteSpace=wrap;html=1;strokeWidth=2;spacingBottom=0;spacingTop=0;fillColor=#e1d5e7;strokeColor=#9673a6;" parent="1" vertex="1">
          <mxGeometry x="220" y="1800" width="120" height="60" as="geometry" />
        </mxCell>
        <mxCell id="gyCaFqsIdJrXnqOvhJbO-123" value="Cluster Terminated" style="whiteSpace=wrap;html=1;strokeWidth=2;spacingBottom=0;spacingTop=0;fillColor=#e1d5e7;strokeColor=#9673a6;" parent="1" vertex="1">
          <mxGeometry x="42" y="1910" width="120" height="60" as="geometry" />
        </mxCell>
        <mxCell id="gyCaFqsIdJrXnqOvhJbO-124" value="Yes" style="edgeStyle=orthogonalEdgeStyle;rounded=0;orthogonalLoop=1;jettySize=auto;html=1;" parent="1" source="gyCaFqsIdJrXnqOvhJbO-125" target="gyCaFqsIdJrXnqOvhJbO-119" edge="1">
          <mxGeometry relative="1" as="geometry" />
        </mxCell>
        <mxCell id="gyCaFqsIdJrXnqOvhJbO-129" style="edgeStyle=orthogonalEdgeStyle;rounded=0;orthogonalLoop=1;jettySize=auto;html=1;entryX=0.5;entryY=0;entryDx=0;entryDy=0;" parent="1" source="gyCaFqsIdJrXnqOvhJbO-125" target="gyCaFqsIdJrXnqOvhJbO-61" edge="1">
          <mxGeometry relative="1" as="geometry" />
        </mxCell>
        <mxCell id="gyCaFqsIdJrXnqOvhJbO-135" value="No" style="edgeLabel;html=1;align=center;verticalAlign=middle;resizable=0;points=[];" parent="gyCaFqsIdJrXnqOvhJbO-129" vertex="1" connectable="0">
          <mxGeometry x="-0.5255" y="2" relative="1" as="geometry">
            <mxPoint as="offset" />
          </mxGeometry>
        </mxCell>
        <mxCell id="gyCaFqsIdJrXnqOvhJbO-125" value="Step Actions&lt;br&gt;Successful&lt;br&gt;?" style="rhombus;whiteSpace=wrap;html=1;strokeWidth=2;spacingBottom=0;spacingTop=11;fillColor=#dae8fc;strokeColor=#6c8ebf;" parent="1" vertex="1">
          <mxGeometry x="38" y="1450" width="124" height="110" as="geometry" />
        </mxCell>
        <mxCell id="gyCaFqsIdJrXnqOvhJbO-136" value="" style="group;shadow=0;" parent="1" vertex="1" connectable="0">
          <mxGeometry x="706" y="640" width="410" height="1330" as="geometry" />
        </mxCell>
        <mxCell id="V7cwoXAEUZXMKd0SKZb5-6" value="Yes" style="edgeStyle=orthogonalEdgeStyle;rounded=0;orthogonalLoop=1;jettySize=auto;html=1;" edge="1" parent="gyCaFqsIdJrXnqOvhJbO-136" source="gyCaFqsIdJrXnqOvhJbO-28" target="gyCaFqsIdJrXnqOvhJbO-40">
          <mxGeometry x="-0.5238" relative="1" as="geometry">
            <mxPoint as="offset" />
          </mxGeometry>
        </mxCell>
        <mxCell id="gyCaFqsIdJrXnqOvhJbO-28" value="Task Instances&lt;br&gt;Termination&lt;br&gt;?" style="strokeWidth=2;html=1;shape=mxgraph.flowchart.decision;whiteSpace=wrap;verticalAlign=middle;spacingBottom=0;spacingTop=11;fillColor=#dae8fc;strokeColor=#6c8ebf;" parent="gyCaFqsIdJrXnqOvhJbO-136" vertex="1">
          <mxGeometry x="10" width="124" height="110" as="geometry" />
        </mxCell>
        <mxCell id="gyCaFqsIdJrXnqOvhJbO-30" value="Bootstrap Actions" style="whiteSpace=wrap;html=1;strokeWidth=2;fillColor=#d5e8d4;strokeColor=#82b366;" parent="gyCaFqsIdJrXnqOvhJbO-136" vertex="1">
          <mxGeometry x="12" y="150" width="120" height="60" as="geometry" />
        </mxCell>
        <mxCell id="gyCaFqsIdJrXnqOvhJbO-31" value="No" style="edgeStyle=orthogonalEdgeStyle;rounded=0;orthogonalLoop=1;jettySize=auto;html=1;" parent="gyCaFqsIdJrXnqOvhJbO-136" source="gyCaFqsIdJrXnqOvhJbO-28" target="gyCaFqsIdJrXnqOvhJbO-30" edge="1">
          <mxGeometry relative="1" as="geometry" />
        </mxCell>
        <mxCell id="gyCaFqsIdJrXnqOvhJbO-35" value="Task Instances&lt;br&gt;Termination&lt;br&gt;?" style="strokeWidth=2;html=1;shape=mxgraph.flowchart.decision;whiteSpace=wrap;verticalAlign=middle;spacingBottom=0;spacingTop=11;fillColor=#dae8fc;strokeColor=#6c8ebf;" parent="gyCaFqsIdJrXnqOvhJbO-136" vertex="1">
          <mxGeometry x="10" y="246" width="124" height="110" as="geometry" />
        </mxCell>
        <mxCell id="gyCaFqsIdJrXnqOvhJbO-36" value="" style="edgeStyle=orthogonalEdgeStyle;rounded=0;orthogonalLoop=1;jettySize=auto;html=1;" parent="gyCaFqsIdJrXnqOvhJbO-136" source="gyCaFqsIdJrXnqOvhJbO-30" target="gyCaFqsIdJrXnqOvhJbO-35" edge="1">
          <mxGeometry relative="1" as="geometry" />
        </mxCell>
        <mxCell id="gyCaFqsIdJrXnqOvhJbO-37" value="Bootstrap&lt;br&gt;Successful&lt;br&gt;?" style="strokeWidth=2;html=1;shape=mxgraph.flowchart.decision;whiteSpace=wrap;verticalAlign=middle;spacingBottom=0;spacingTop=11;fillColor=#dae8fc;strokeColor=#6c8ebf;" parent="gyCaFqsIdJrXnqOvhJbO-136" vertex="1">
          <mxGeometry x="10" y="380" width="124" height="110" as="geometry" />
        </mxCell>
        <mxCell id="gyCaFqsIdJrXnqOvhJbO-39" value="No" style="edgeStyle=orthogonalEdgeStyle;rounded=0;orthogonalLoop=1;jettySize=auto;html=1;" parent="gyCaFqsIdJrXnqOvhJbO-136" source="gyCaFqsIdJrXnqOvhJbO-35" target="gyCaFqsIdJrXnqOvhJbO-37" edge="1">
          <mxGeometry relative="1" as="geometry" />
        </mxCell>
        <mxCell id="gyCaFqsIdJrXnqOvhJbO-40" value="How the EMR Cluster will handle it ?&lt;br&gt;&lt;br&gt;Terminated Spot Instances are&lt;br&gt;not replaced by On-Demand" style="whiteSpace=wrap;html=1;strokeWidth=2;spacingBottom=0;spacingTop=0;fillColor=#ffe6cc;strokeColor=#d79b00;" parent="gyCaFqsIdJrXnqOvhJbO-136" vertex="1">
          <mxGeometry x="234" y="245" width="176" height="111" as="geometry" />
        </mxCell>
        <mxCell id="gyCaFqsIdJrXnqOvhJbO-41" value="Yes" style="edgeStyle=orthogonalEdgeStyle;rounded=0;orthogonalLoop=1;jettySize=auto;html=1;" parent="gyCaFqsIdJrXnqOvhJbO-136" source="gyCaFqsIdJrXnqOvhJbO-35" target="gyCaFqsIdJrXnqOvhJbO-40" edge="1">
          <mxGeometry relative="1" as="geometry" />
        </mxCell>
        <mxCell id="gyCaFqsIdJrXnqOvhJbO-44" value="Step Actions" style="whiteSpace=wrap;html=1;strokeWidth=2;spacingBottom=0;spacingTop=0;fillColor=#d5e8d4;strokeColor=#82b366;" parent="gyCaFqsIdJrXnqOvhJbO-136" vertex="1">
          <mxGeometry x="12" y="560" width="120" height="60" as="geometry" />
        </mxCell>
        <mxCell id="gyCaFqsIdJrXnqOvhJbO-45" value="Yes" style="edgeStyle=orthogonalEdgeStyle;rounded=0;orthogonalLoop=1;jettySize=auto;html=1;" parent="gyCaFqsIdJrXnqOvhJbO-136" source="gyCaFqsIdJrXnqOvhJbO-37" target="gyCaFqsIdJrXnqOvhJbO-44" edge="1">
          <mxGeometry relative="1" as="geometry" />
        </mxCell>
        <mxCell id="gyCaFqsIdJrXnqOvhJbO-46" value="Task Instances&lt;br&gt;Termination&lt;br&gt;?" style="strokeWidth=2;html=1;shape=mxgraph.flowchart.decision;whiteSpace=wrap;verticalAlign=middle;spacingBottom=0;spacingTop=11;fillColor=#dae8fc;strokeColor=#6c8ebf;" parent="gyCaFqsIdJrXnqOvhJbO-136" vertex="1">
          <mxGeometry x="10" y="650" width="124" height="110" as="geometry" />
        </mxCell>
        <mxCell id="gyCaFqsIdJrXnqOvhJbO-47" value="" style="edgeStyle=orthogonalEdgeStyle;rounded=0;orthogonalLoop=1;jettySize=auto;html=1;" parent="gyCaFqsIdJrXnqOvhJbO-136" source="gyCaFqsIdJrXnqOvhJbO-44" target="gyCaFqsIdJrXnqOvhJbO-46" edge="1">
          <mxGeometry relative="1" as="geometry" />
        </mxCell>
        <mxCell id="gyCaFqsIdJrXnqOvhJbO-49" value="Yes" style="edgeStyle=orthogonalEdgeStyle;rounded=0;orthogonalLoop=1;jettySize=auto;html=1;" parent="gyCaFqsIdJrXnqOvhJbO-136" source="gyCaFqsIdJrXnqOvhJbO-46" target="V7cwoXAEUZXMKd0SKZb5-4" edge="1">
          <mxGeometry relative="1" as="geometry">
            <mxPoint x="194" y="740" as="targetPoint" />
          </mxGeometry>
        </mxCell>
        <mxCell id="gyCaFqsIdJrXnqOvhJbO-51" value="Cluster Configured to auto-terminate&lt;br&gt;?" style="rhombus;whiteSpace=wrap;html=1;strokeWidth=2;spacingBottom=0;spacingTop=11;fillColor=#dae8fc;strokeColor=#6c8ebf;" parent="gyCaFqsIdJrXnqOvhJbO-136" vertex="1">
          <mxGeometry y="970" width="144" height="140" as="geometry" />
        </mxCell>
        <mxCell id="gyCaFqsIdJrXnqOvhJbO-53" value="Cluster Shutdown" style="whiteSpace=wrap;html=1;strokeWidth=2;spacingBottom=0;spacingTop=0;fillColor=#e1d5e7;strokeColor=#9673a6;" parent="gyCaFqsIdJrXnqOvhJbO-136" vertex="1">
          <mxGeometry x="12" y="1160" width="120" height="60" as="geometry" />
        </mxCell>
        <mxCell id="gyCaFqsIdJrXnqOvhJbO-54" value="Yes" style="edgeStyle=orthogonalEdgeStyle;rounded=0;orthogonalLoop=1;jettySize=auto;html=1;" parent="gyCaFqsIdJrXnqOvhJbO-136" source="gyCaFqsIdJrXnqOvhJbO-51" target="gyCaFqsIdJrXnqOvhJbO-53" edge="1">
          <mxGeometry relative="1" as="geometry" />
        </mxCell>
        <mxCell id="gyCaFqsIdJrXnqOvhJbO-55" value="Cluster Wating" style="whiteSpace=wrap;html=1;strokeWidth=2;spacingBottom=0;spacingTop=0;fillColor=#e1d5e7;strokeColor=#9673a6;" parent="gyCaFqsIdJrXnqOvhJbO-136" vertex="1">
          <mxGeometry x="226" y="1160" width="120" height="60" as="geometry" />
        </mxCell>
        <mxCell id="gyCaFqsIdJrXnqOvhJbO-56" value="" style="edgeStyle=orthogonalEdgeStyle;rounded=0;orthogonalLoop=1;jettySize=auto;html=1;" parent="gyCaFqsIdJrXnqOvhJbO-136" source="gyCaFqsIdJrXnqOvhJbO-51" target="gyCaFqsIdJrXnqOvhJbO-55" edge="1">
          <mxGeometry relative="1" as="geometry" />
        </mxCell>
        <mxCell id="gyCaFqsIdJrXnqOvhJbO-57" value="Cluster Terminated" style="whiteSpace=wrap;html=1;strokeWidth=2;spacingBottom=0;spacingTop=0;fillColor=#e1d5e7;strokeColor=#9673a6;" parent="gyCaFqsIdJrXnqOvhJbO-136" vertex="1">
          <mxGeometry x="12" y="1270" width="120" height="60" as="geometry" />
        </mxCell>
        <mxCell id="gyCaFqsIdJrXnqOvhJbO-58" value="" style="edgeStyle=orthogonalEdgeStyle;rounded=0;orthogonalLoop=1;jettySize=auto;html=1;" parent="gyCaFqsIdJrXnqOvhJbO-136" source="gyCaFqsIdJrXnqOvhJbO-53" target="gyCaFqsIdJrXnqOvhJbO-57" edge="1">
          <mxGeometry relative="1" as="geometry" />
        </mxCell>
        <mxCell id="gyCaFqsIdJrXnqOvhJbO-69" value="Yes" style="edgeStyle=orthogonalEdgeStyle;rounded=0;orthogonalLoop=1;jettySize=auto;html=1;" parent="gyCaFqsIdJrXnqOvhJbO-136" source="gyCaFqsIdJrXnqOvhJbO-63" target="gyCaFqsIdJrXnqOvhJbO-51" edge="1">
          <mxGeometry relative="1" as="geometry" />
        </mxCell>
        <mxCell id="gyCaFqsIdJrXnqOvhJbO-63" value="Step Actions&lt;br&gt;Successful&lt;br&gt;?" style="rhombus;whiteSpace=wrap;html=1;strokeWidth=2;spacingBottom=0;spacingTop=11;fillColor=#dae8fc;strokeColor=#6c8ebf;" parent="gyCaFqsIdJrXnqOvhJbO-136" vertex="1">
          <mxGeometry x="10" y="810" width="124" height="110" as="geometry" />
        </mxCell>
        <mxCell id="gyCaFqsIdJrXnqOvhJbO-64" value="No" style="edgeStyle=orthogonalEdgeStyle;rounded=0;orthogonalLoop=1;jettySize=auto;html=1;" parent="gyCaFqsIdJrXnqOvhJbO-136" source="gyCaFqsIdJrXnqOvhJbO-46" target="gyCaFqsIdJrXnqOvhJbO-63" edge="1">
          <mxGeometry relative="1" as="geometry" />
        </mxCell>
        <mxCell id="V7cwoXAEUZXMKd0SKZb5-4" value="How the EMR Cluster will handle it ?&lt;br&gt;&lt;br&gt;Terminated Spot Instances are&lt;br&gt;not replaced by On-Demand" style="whiteSpace=wrap;html=1;strokeWidth=2;spacingBottom=0;spacingTop=0;fillColor=#ffe6cc;strokeColor=#d79b00;" vertex="1" parent="gyCaFqsIdJrXnqOvhJbO-136">
          <mxGeometry x="226" y="650" width="176" height="111" as="geometry" />
        </mxCell>
        <mxCell id="gyCaFqsIdJrXnqOvhJbO-137" value="Cluster Terminated&lt;br&gt;With Error" style="whiteSpace=wrap;html=1;strokeWidth=2;spacingBottom=0;spacingTop=0;fillColor=#f8cecc;strokeColor=#b85450;" parent="1" vertex="1">
          <mxGeometry x="959" y="355" width="120" height="60" as="geometry" />
        </mxCell>
        <mxCell id="V7cwoXAEUZXMKd0SKZb5-1" value="Spot Instance&lt;br&gt;Block Duration&lt;br&gt;Max 6H&lt;br&gt;No Longer Available" style="whiteSpace=wrap;html=1;fillColor=#f8cecc;strokeColor=#b85450;strokeWidth=2;spacingBottom=0;spacingTop=0;" vertex="1" parent="1">
          <mxGeometry x="1181" y="1109" width="120" height="60" as="geometry" />
        </mxCell>
        <mxCell id="V7cwoXAEUZXMKd0SKZb5-2" value="" style="edgeStyle=orthogonalEdgeStyle;rounded=0;orthogonalLoop=1;jettySize=auto;html=1;" edge="1" parent="1" source="gyCaFqsIdJrXnqOvhJbO-40" target="V7cwoXAEUZXMKd0SKZb5-1">
          <mxGeometry relative="1" as="geometry" />
        </mxCell>
        <mxCell id="V7cwoXAEUZXMKd0SKZb5-5" style="edgeStyle=orthogonalEdgeStyle;rounded=0;orthogonalLoop=1;jettySize=auto;html=1;entryX=0.5;entryY=1;entryDx=0;entryDy=0;" edge="1" parent="1" source="V7cwoXAEUZXMKd0SKZb5-4" target="V7cwoXAEUZXMKd0SKZb5-1">
          <mxGeometry relative="1" as="geometry" />
        </mxCell>
      </root>
    </mxGraphModel>
  </diagram>
</mxfile>
